<?xml version="1.0" encoding="UTF-8" standalone="no"?>
<!-- Created with Inkscape (http://www.inkscape.org/) -->

<svg
   xmlns:dc="http://purl.org/dc/elements/1.1/"
   xmlns:cc="http://creativecommons.org/ns#"
   xmlns:rdf="http://www.w3.org/1999/02/22-rdf-syntax-ns#"
   xmlns:svg="http://www.w3.org/2000/svg"
   xmlns="http://www.w3.org/2000/svg"
   xmlns:sodipodi="http://sodipodi.sourceforge.net/DTD/sodipodi-0.dtd"
   xmlns:inkscape="http://www.inkscape.org/namespaces/inkscape"
   version="1.1"
   id="svg2"
   xml:space="preserve"
   width="826.66669"
   height="826.66669"
   viewBox="0 0 826.66669 826.66669"
   sodipodi:docname="Search Icon.svg"
   inkscape:export-filename="C:\Users\buiba\Desktop\GaN Android App\LED Lab\app\src\main\res\drawable-nodpi\ic_button_video.png"
   inkscape:export-xdpi="83.6129"
   inkscape:export-ydpi="83.6129"
   inkscape:version="0.92.4 (5da689c313, 2019-01-14)"><metadata
     id="metadata8"><rdf:RDF><cc:Work
         rdf:about=""><dc:format>image/svg+xml</dc:format><dc:type
           rdf:resource="http://purl.org/dc/dcmitype/StillImage" /><dc:title></dc:title></cc:Work></rdf:RDF></metadata><defs
     id="defs6"><marker
       inkscape:stockid="DotL"
       orient="auto"
       refY="0.0"
       refX="0.0"
       id="DotL"
       style="overflow:visible"
       inkscape:isstock="true"><path
         id="path988"
         d="M -2.5,-1.0 C -2.5,1.7600000 -4.7400000,4.0 -7.5,4.0 C -10.260000,4.0 -12.5,1.7600000 -12.5,-1.0 C -12.5,-3.7600000 -10.260000,-6.0 -7.5,-6.0 C -4.7400000,-6.0 -2.5,-3.7600000 -2.5,-1.0 z "
         style="fill-rule:evenodd;stroke:#aa4400;stroke-width:1pt;stroke-opacity:1;fill:#aa4400;fill-opacity:1"
         transform="scale(0.8) translate(7.4, 1)" /></marker><clipPath
       clipPathUnits="userSpaceOnUse"
       id="clipPath18"><path
         d="M 0,620 H 620 V 0 H 0 Z"
         id="path16"
         inkscape:connector-curvature="0" /></clipPath><clipPath
       clipPathUnits="userSpaceOnUse"
       id="clipPath26"><path
         d="M 254.47,596.871 H 584.028 V 267.313 H 254.47 Z"
         id="path24"
         inkscape:connector-curvature="0" /></clipPath><clipPath
       clipPathUnits="userSpaceOnUse"
       id="clipPath30"><path
         d="M 254.47,596.871 H 584.028 V 267.313 H 254.47 Z"
         id="path28"
         inkscape:connector-curvature="0" /></clipPath><mask
       maskUnits="userSpaceOnUse"
       x="0"
       y="0"
       width="1"
       height="1"
       id="mask32"><g
         id="g48"><g
           clip-path="url(#clipPath26)"
           id="g46"><g
             id="g44"><g
               id="g34" /><g
               id="g42"><g
                 clip-path="url(#clipPath30)"
                 id="g40"><g
                   transform="translate(555.7744,450.52)"
                   id="g38"><path
                     d="m 0,0 c 10.177,-75.4 -42.696,-144.776 -118.097,-154.954 -75.4,-10.177 -144.775,42.697 -154.953,118.098 -10.177,75.399 42.696,144.774 118.097,154.952 C -79.553,128.274 -10.178,75.4 0,0 Z"
                     style="fill:none;stroke:#231f20;stroke-width:54;stroke-linecap:butt;stroke-linejoin:miter;stroke-miterlimit:10;stroke-dasharray:none;stroke-opacity:1"
                     id="path36"
                     inkscape:connector-curvature="0" /></g></g></g></g></g></g></mask><clipPath
       clipPathUnits="userSpaceOnUse"
       id="clipPath56"><path
         d="M 84.2153,349.222 H 350.785 V 44.3496 H 84.2153 Z"
         id="path54"
         inkscape:connector-curvature="0" /></clipPath><clipPath
       clipPathUnits="userSpaceOnUse"
       id="clipPath76"><path
         d="M 246.138,572.907 H 562.569 V 256.476 H 246.138 Z"
         id="path74"
         inkscape:connector-curvature="0" /></clipPath><clipPath
       clipPathUnits="userSpaceOnUse"
       id="clipPath80"><path
         d="M 246.138,572.907 H 562.569 V 256.476 H 246.138 Z"
         id="path78"
         inkscape:connector-curvature="0" /></clipPath><mask
       maskUnits="userSpaceOnUse"
       x="0"
       y="0"
       width="1"
       height="1"
       id="mask82"><g
         id="g98"><g
           clip-path="url(#clipPath76)"
           id="g96"><g
             id="g94"><g
               id="g84" /><g
               id="g92"><g
                 clip-path="url(#clipPath80)"
                 id="g90"><g
                   transform="translate(534.375,432.2417)"
                   id="g88"><path
                     d="m 0,0 c 9.691,-71.809 -40.662,-137.879 -112.471,-147.572 -71.808,-9.692 -137.878,40.663 -147.571,112.471 -9.693,71.809 40.662,137.878 112.47,147.572 C -75.763,122.164 -9.692,71.809 0,0 Z"
                     style="fill:none;stroke:#231f20;stroke-width:54;stroke-linecap:butt;stroke-linejoin:miter;stroke-miterlimit:10;stroke-dasharray:none;stroke-opacity:1"
                     id="path86"
                     inkscape:connector-curvature="0" /></g></g></g></g></g></g></mask><clipPath
       clipPathUnits="userSpaceOnUse"
       id="clipPath106"><path
         d="M 74.0586,346.831 H 350.371 V 34.3604 H 74.0586 Z"
         id="path104"
         inkscape:connector-curvature="0" /></clipPath></defs><sodipodi:namedview
     pagecolor="#ffffff"
     bordercolor="#666666"
     borderopacity="1"
     objecttolerance="10"
     gridtolerance="10"
     guidetolerance="10"
     inkscape:pageopacity="0"
     inkscape:pageshadow="2"
     inkscape:window-width="2256"
     inkscape:window-height="1410"
     id="namedview4"
     showgrid="false"
     inkscape:pagecheckerboard="true"
     inkscape:zoom="0.57096773"
     inkscape:cx="237.56479"
     inkscape:cy="380.07353"
     inkscape:window-x="-11"
     inkscape:window-y="-11"
     inkscape:window-maximized="1"
     inkscape:current-layer="g1375" /><g
     id="g10"
     inkscape:groupmode="layer"
     inkscape:label="Search Icon"
     transform="matrix(1.3333333,0,0,-1.3333333,0,826.66667)"><g
       id="g12"><g
         id="g1369"
         transform="translate(739.53394,207.54238)"><path
           id="rect1251"
           transform="matrix(0.75000002,0,0,-0.75000002,0,620.00002)"
           d="m 384.07617,410.53516 c -5.99985,-0.0445 -11.59388,2.16429 -15.6914,6.74804 l -84.35938,94.3711 c -0.56845,0.50718 -1.11851,1.04483 -1.64062,1.6289 L 65.855469,755.50586 c -9.365768,10.47715 -7.260436,29.28142 4.71875,42.16016 11.979185,12.87873 29.161576,14.81113 38.527341,4.33398 l 84.35938,-94.37109 c 0.56845,-0.50719 1.11851,-1.04484 1.64062,-1.62891 l 216.5293,-242.22266 c 9.36577,-10.47715 7.26239,-29.28142 -4.7168,-42.16015 -6.73829,-7.24429 -15.12379,-11.02487 -22.83789,-11.08203 z"
           style="opacity:1;fill:#aa4400;fill-opacity:1;stroke:#aa4400;stroke-width:10;stroke-miterlimit:4;stroke-dasharray:none;stroke-dashoffset:0;stroke-opacity:1"
           inkscape:connector-curvature="0" /><g
           id="g1344"><g
             id="g14"
             clip-path="url(#clipPath18)"
             style="stroke:#aa4400"><g
               id="g20"
               style="stroke:#aa4400"><g
                 id="g22"
                 style="stroke:#aa4400" /><g
                 id="g50"
                 mask="url(#mask32)"
                 style="stroke:#aa4400"><g
                   id="g52"
                   style="stroke:#aa4400" /><g
                   id="g64"
                   style="stroke:#aa4400"><g
                     clip-path="url(#clipPath56)"
                     id="g62"
                     style="stroke:#aa4400"><g
                       transform="translate(312.5312,342.6553)"
                       id="g60"
                       style="stroke:#aa4400"><path
                         d="m 0,0 c -24.959,-29.238 -49.918,-58.477 -74.878,-87.714 -39.817,-46.642 -79.633,-93.284 -119.45,-139.927 -9.185,-10.758 -18.37,-21.518 -27.554,-32.277 -7.956,-9.319 -9.18,-22.642 0,-31.82 8.156,-8.158 23.85,-9.336 31.819,0 24.959,29.238 49.919,58.476 74.878,87.714 39.817,46.642 79.634,93.284 119.451,139.926 9.184,10.759 18.369,21.519 27.554,32.278 7.955,9.319 9.179,22.641 0,31.82 C 23.663,8.157 7.97,9.335 0,0"
                         style="fill:#ffffff;fill-opacity:1;fill-rule:nonzero;stroke:#aa4400"
                         id="path58"
                         inkscape:connector-curvature="0" /></g></g></g></g></g><g
               id="g66"
               transform="translate(555.7744,450.52)"
               style="stroke:#aa4400"><path
                 d="m 0,0 c 10.177,-75.4 -42.696,-144.776 -118.097,-154.954 -75.4,-10.177 -144.775,42.697 -154.953,118.098 -10.177,75.399 42.696,144.774 118.097,154.952 C -79.553,128.274 -10.178,75.4 0,0 Z"
                 style="fill:none;stroke:#aa4400;stroke-width:44;stroke-linecap:butt;stroke-linejoin:miter;stroke-miterlimit:10;stroke-dasharray:none;stroke-opacity:1"
                 id="path68"
                 inkscape:connector-curvature="0" /></g><g
               id="g70"
               style="stroke:#aa4400"><g
                 id="g72"
                 style="stroke:#aa4400" /><g
                 id="g100"
                 mask="url(#mask82)"
                 style="stroke:#aa4400"><g
                   id="g102"
                   style="stroke:#aa4400" /><g
                   id="g114"
                   style="stroke:#aa4400"><g
                     clip-path="url(#clipPath106)"
                     id="g112"
                     style="stroke:#aa4400"><g
                       transform="translate(294.8901,337.3442)"
                       id="g110"
                       style="stroke:#aa4400" /></g></g></g></g><g
               id="g116"
               transform="translate(555.7744,450.52)"
               style="stroke:#aa4400"><path
                 d="m 0,0 c 10.177,-75.4 -42.696,-144.776 -118.097,-154.954 -75.4,-10.177 -144.775,42.697 -154.953,118.098 -10.177,75.399 42.696,144.774 118.097,154.952 C -79.553,128.274 -10.178,75.4 0,0 Z"
                 style="fill:none;stroke:#aa4400;stroke-width:49;stroke-linecap:butt;stroke-linejoin:miter;stroke-miterlimit:10;stroke-dasharray:none;stroke-opacity:1"
                 id="path118"
                 inkscape:connector-curvature="0" /></g></g></g></g><g
         transform="matrix(0.59719821,0,0,-0.61650494,-52.9635,679.95894)"
         id="g1289"
         style="fill:#225500;stroke-width:1.23604345"><g
           id="g1375"
           transform="matrix(0.96633362,0,0,0.97912913,124.61049,110.57518)"
           style="stroke-width:1.27072096"><path
             style="fill:#225500;stroke-width:25.41442044;stroke-miterlimit:4;stroke-dasharray:none;stroke:#225500"
             id="path1281"
             d="M 739.1,449 C 739.1,251.9 575.5,91.6 374.5,91.6 173.6,91.7 10,252 10,449 10,549.5 52.3,643.7 126.9,711.3 l -67.8,97.2 c -6.6,9.5 -6.5,22.1 0.2,31.4 5.2,7.3 13.5,11.4 22.1,11.4 2.5,0 5,-0.4 7.5,-1.1 L 282,794.8 c 30,7.7 61.1,11.6 92.5,11.6 201.1,0 364.6,-160.3 364.6,-357.4 z M 374.6,752 c -29.1,0 -57.8,-3.9 -85.4,-11.6 -4.8,-1.3 -10,-1.4 -14.8,0.1 l -126.7,36.3 38.1,-54.6 c 8.2,-11.8 5.8,-28 -5.5,-37 C 106.6,627.3 64.4,541.2 64.4,449 c 0,-167 139.1,-302.9 310.1,-302.9 171,0 310.1,135.9 310.1,302.9 0.1,167.1 -139,303 -310,303 z"
             inkscape:connector-curvature="0" /><path
             style="fill:#225500;stroke-width:25.41442044;stroke-miterlimit:4;stroke-dasharray:none;stroke:#225500"
             id="path1283"
             d="M 888.5,779.5 C 953.3,720.6 990,638.6 990,551.1 990,412.7 898.3,290.5 767,253.8 c -14.2,-4 -29.5,4.4 -33.5,18.9 -4,14.5 4.4,29.5 18.9,33.5 107.8,30.2 183.2,130.9 183.2,244.9 0,78.2 -35.8,151.2 -98.2,200.3 -10.4,8.2 -13.4,22.5 -7.2,34.2 l 24.7,46.4 -93.6,-33.2 c -5.2,-1.9 -11,-2.1 -16.4,-0.6 -23.5,6.5 -47.9,9.9 -72.5,9.9 -45.9,0 -63.5,-1.4 -96.7,-17.6 -13.5,-6.6 -29.8,-0.9 -36.4,12.6 -6.6,13.5 -1,29.8 12.6,36.4 45.1,22 73.8,23 120.5,23 26.6,0 53,-3.2 78.7,-9.6 l 151.7,53.8 c 3,1.1 6.1,1.6 9.1,1.6 7.8,0 15.4,-3.3 20.6,-9.5 7.3,-8.5 8.7,-20.6 3.4,-30.5 z"
             inkscape:connector-curvature="0" /><path
             style="fill:#225500;stroke-width:12.70721022;stroke:#225500;stroke-miterlimit:4;stroke-dasharray:none"
             id="path1285"
             d="m 391.1,227.8 c -27.7,0 -54.3,8.2 -77.1,23.7 -37,25.2 -59,66.6 -59,111 0,15 12.2,27.2 27.2,27.2 15,0 27.2,-12.2 27.2,-27.2 0,-26.3 13.2,-51 35.2,-66 13.7,-9.3 29.7,-14.2 46.4,-14.2 45,0 81.7,36 81.7,80.2 0,16 -4.8,31.5 -13.8,44.7 -15.2,22.2 -40.6,35.5 -69.1,35.6 -27.4,1.3 -55.1,19.4 -55.1,51.6 v 60.2 c 0,15.1 12.2,27.2 27.2,27.2 15,0 27.2,-12.2 27.2,-27.2 v -56.7 c 0.9,-0.3 1.7,-0.5 1.9,-0.6 45.2,0 87.4,-22.1 112.8,-59.2 15.2,-22.3 23.3,-48.4 23.3,-75.5 0.1,-74.4 -60.9,-134.8 -136,-134.8 z"
             inkscape:connector-curvature="0" /><path
             style="fill:#225500;stroke-width:12.70721022;stroke:#225500;stroke-miterlimit:4;stroke-dasharray:none"
             id="path1287"
             d="m 334.5,636.1 c 0,15 12.2,27.2 27.2,27.2 15,0 27.2,-12.2 27.2,-27.2 0,-15 -12.2,-27.2 -27.2,-27.2 -15,0 -27.2,12.2 -27.2,27.2 z"
             inkscape:connector-curvature="0" /></g></g></g></g></svg>