<?xml version="1.0" encoding="UTF-8" standalone="no"?>
<!-- Generator: Adobe Illustrator 19.0.0, SVG Export Plug-In . SVG Version: 6.00 Build 0)  -->

<svg
   xmlns:dc="http://purl.org/dc/elements/1.1/"
   xmlns:cc="http://creativecommons.org/ns#"
   xmlns:rdf="http://www.w3.org/1999/02/22-rdf-syntax-ns#"
   xmlns:svg="http://www.w3.org/2000/svg"
   xmlns="http://www.w3.org/2000/svg"
   xmlns:sodipodi="http://sodipodi.sourceforge.net/DTD/sodipodi-0.dtd"
   xmlns:inkscape="http://www.inkscape.org/namespaces/inkscape"
   version="1.1"
   id="Capa_1"
   x="0px"
   y="0px"
   viewBox="0 0 720.00002 720.00002"
   xml:space="preserve"
   sodipodi:docname="contact.svg"
   width="720"
   height="720"
   inkscape:export-filename="C:\Users\buiba\Desktop\GaN Android App\LED Lab\app\src\main\res\drawable-nodpi\ic_button_contact_us.png"
   inkscape:export-xdpi="96"
   inkscape:export-ydpi="96"
   inkscape:version="0.92.4 (5da689c313, 2019-01-14)"><metadata
   id="metadata47"><rdf:RDF><cc:Work
       rdf:about=""><dc:format>image/svg+xml</dc:format><dc:type
         rdf:resource="http://purl.org/dc/dcmitype/StillImage" /><dc:title></dc:title></cc:Work></rdf:RDF></metadata><defs
   id="defs45" /><sodipodi:namedview
   pagecolor="#ffffff"
   bordercolor="#666666"
   borderopacity="1"
   objecttolerance="10"
   gridtolerance="10"
   guidetolerance="10"
   inkscape:pageopacity="0"
   inkscape:pageshadow="2"
   inkscape:window-width="2256"
   inkscape:window-height="1410"
   id="namedview43"
   showgrid="false"
   inkscape:zoom="0.46104377"
   inkscape:cx="255.94099"
   inkscape:cy="255.94099"
   inkscape:window-x="-11"
   inkscape:window-y="-11"
   inkscape:window-maximized="1"
   inkscape:current-layer="Capa_1" />
<g
   id="g10"
   transform="matrix(1.3220335,0,0,1.2999545,21.637426,27.289042)"
   style="fill:#800080;stroke-width:0.76280707">
	<g
   id="g8"
   style="fill:#800080;stroke-width:0.76280707">
		<g
   id="g6"
   style="fill:#800080;stroke-width:0.76280707">
			<path
   d="m 389.898,430.449 -86.29,-57.527 c -3.86,-2.548 -9.03,-1.709 -11.886,1.929 l -25.125,32.302 c -8.143,10.612 -22.839,13.641 -34.514,7.113 l -4.645,-2.551 c -16.759,-9.143 -37.623,-20.517 -79.04,-61.934 -41.417,-41.417 -52.8,-62.281 -61.934,-79.049 l -2.56,-4.645 c -6.527,-11.672 -3.498,-26.366 7.113,-34.505 l 32.293,-25.134 c 3.642,-2.854 4.482,-8.026 1.929,-11.886 L 67.721,108.263 c -2.616,-3.916 -7.843,-5.094 -11.886,-2.679 l -36.105,21.65 c -7.746,4.521 -13.443,11.863 -15.899,20.489 -11.858,43.182 -1.883,118.793 112.96,233.646 114.843,114.853 190.437,124.846 233.655,112.978 8.628,-2.459 15.969,-8.159 20.489,-15.909 l 21.641,-36.105 c 2.421,-4.04 1.242,-9.27 -2.678,-11.884 z"
   id="path2"
   inkscape:connector-curvature="0"
   style="fill:#800080;stroke-width:0.76280707" />
			<path
   d="M 510.425,15.156 C 509.479,14.21 508.191,13.685 506.853,13.7 H 123.767 c -1.338,-0.015 -2.626,0.51 -3.572,1.456 -0.946,0.946 -1.471,2.234 -1.456,3.572 V 151.83 l 21.723,32.585 c 7.835,11.838 5.26,27.708 -5.915,36.462 l -32.265,25.134 c -3.454,2.62 -4.458,7.38 -2.359,11.173 l 2.633,4.8 c 8.395,15.966 18.635,30.892 30.51,44.471 h 373.787 c 2.743,0.02 4.988,-2.176 5.029,-4.919 V 18.728 c 0.015,-1.338 -0.51,-2.626 -1.457,-3.572 z M 250.661,181.434 v -0.046 l -93.659,100.343 c -3.444,3.694 -9.23,3.896 -12.923,0.453 -3.694,-3.444 -3.896,-9.23 -0.453,-12.923 l 93.659,-100.297 c 3.444,-3.694 9.23,-3.896 12.923,-0.453 3.694,3.444 3.897,9.23 0.453,12.923 z m 64.649,-7.204 c -6.589,0.03 -13.009,-2.088 -18.286,-6.034 L 144.211,52.319 c -4.024,-3.065 -4.802,-8.812 -1.737,-12.837 3.065,-4.024 8.812,-4.802 12.837,-1.737 l 152.75,115.877 c 4.323,3.141 10.177,3.141 14.501,0 L 475.356,37.745 c 4.024,-3.052 9.761,-2.264 12.814,1.76 3.053,4.024 2.264,9.761 -1.76,12.814 L 333.596,168.196 c -5.277,3.946 -11.696,6.064 -18.286,6.034 z m 171.813,107.95 c -1.773,1.656 -4.132,2.539 -6.557,2.455 -2.425,-0.084 -4.717,-1.128 -6.371,-2.903 l -93.65,-100.343 c -3.182,-3.729 -2.856,-9.304 0.737,-12.637 3.594,-3.334 9.177,-3.24 12.657,0.212 l 93.632,100.297 c 3.442,3.691 3.242,9.474 -0.448,12.919 z"
   id="path4"
   inkscape:connector-curvature="0"
   style="fill:#800080;stroke-width:0.76280707" />
		</g>
	</g>
</g>
<g
   id="g12"
   transform="translate(0,208.11801)">
</g>
<g
   id="g14"
   transform="translate(0,208.11801)">
</g>
<g
   id="g16"
   transform="translate(0,208.11801)">
</g>
<g
   id="g18"
   transform="translate(0,208.11801)">
</g>
<g
   id="g20"
   transform="translate(0,208.11801)">
</g>
<g
   id="g22"
   transform="translate(0,208.11801)">
</g>
<g
   id="g24"
   transform="translate(0,208.11801)">
</g>
<g
   id="g26"
   transform="translate(0,208.11801)">
</g>
<g
   id="g28"
   transform="translate(0,208.11801)">
</g>
<g
   id="g30"
   transform="translate(0,208.11801)">
</g>
<g
   id="g32"
   transform="translate(0,208.11801)">
</g>
<g
   id="g34"
   transform="translate(0,208.11801)">
</g>
<g
   id="g36"
   transform="translate(0,208.11801)">
</g>
<g
   id="g38"
   transform="translate(0,208.11801)">
</g>
<g
   id="g40"
   transform="translate(0,208.11801)">
</g>
</svg>