<?xml version="1.0" encoding="UTF-8" standalone="no"?>
<!-- Generator: Adobe Illustrator 18.1.1, SVG Export Plug-In . SVG Version: 6.00 Build 0)  -->

<svg
   xmlns:dc="http://purl.org/dc/elements/1.1/"
   xmlns:cc="http://creativecommons.org/ns#"
   xmlns:rdf="http://www.w3.org/1999/02/22-rdf-syntax-ns#"
   xmlns:svg="http://www.w3.org/2000/svg"
   xmlns="http://www.w3.org/2000/svg"
   xmlns:sodipodi="http://sodipodi.sourceforge.net/DTD/sodipodi-0.dtd"
   xmlns:inkscape="http://www.inkscape.org/namespaces/inkscape"
   version="1.1"
   id="Capa_1"
   x="0px"
   y="0px"
   viewBox="0 0 719.99999 719.99999"
   xml:space="preserve"
   sodipodi:docname="hat.svg"
   width="720"
   height="720"
   inkscape:version="0.92.4 (5da689c313, 2019-01-14)"><metadata
   id="metadata45"><rdf:RDF><cc:Work
       rdf:about=""><dc:format>image/svg+xml</dc:format><dc:type
         rdf:resource="http://purl.org/dc/dcmitype/StillImage" /><dc:title></dc:title></cc:Work></rdf:RDF></metadata><defs
   id="defs43" /><sodipodi:namedview
   pagecolor="#ffffff"
   bordercolor="#666666"
   borderopacity="1"
   objecttolerance="10"
   gridtolerance="10"
   guidetolerance="10"
   inkscape:pageopacity="0"
   inkscape:pageshadow="2"
   inkscape:window-width="2256"
   inkscape:window-height="1410"
   id="namedview41"
   showgrid="false"
   inkscape:pagecheckerboard="true"
   inkscape:zoom="0.69131982"
   inkscape:cx="21.336"
   inkscape:cy="43.033628"
   inkscape:window-x="-11"
   inkscape:window-y="-11"
   inkscape:window-maximized="1"
   inkscape:current-layer="Capa_1" />
<g
   id="g8"
   transform="matrix(14.593221,0,0,18.168752,54.967323,-81.720139)"
   style="stroke-width:0.06141322">
	<g
   id="c9_hat"
   style="stroke-width:0.06141322">
		<path
   d="m 38.729,25.815 v -4.09 L 42.672,19.546 21.337,8.151 0,19.547 l 8.506,4.94 v 2.909 0.229 c 0.023,-0.012 0.052,-0.023 0.077,-0.035 -0.091,0.125 -0.15,0.247 -0.15,0.375 0,1.428 5.774,2.592 12.904,2.592 7.126,0 12.906,-1.164 12.906,-2.592 0,-0.128 -0.062,-0.25 -0.15,-0.375 0.025,0.015 0.054,0.023 0.076,0.035 v -0.229 -2.917 l 3.711,-2.283 v 3.619 c -0.405,0.166 -0.69,0.568 -0.69,1.034 0,0.616 0.499,1.116 1.114,1.116 0.621,0 1.119,-0.5 1.119,-1.116 0,-0.466 -0.284,-0.868 -0.694,-1.034 z m -17.392,3.759 c -6.327,0 -11.453,-0.722 -11.453,-1.608 0,-0.886 5.126,-1.606 11.453,-1.606 6.324,0 11.452,0.72 11.452,1.606 0,0.886 -5.128,1.608 -11.452,1.608 z M 33.89,22.103 c -0.85,-0.909 -3.908,-3.295 -12.553,-3.295 -8.65,0 -11.703,2.388 -12.552,3.298 v -0.864 c 0,0 2.476,-3.717 12.552,-3.717 10.075,0 12.553,3.717 12.553,3.717 z"
   id="path2"
   inkscape:connector-curvature="0"
   style="stroke-width:0.06141322" />
		<path
   d="m 37.4,28.194 -0.468,6.328 c 1.36,-2.109 2.481,-1.314 2.481,-1.314 v -5.014 c -1.45,0.563 -2.013,0 -2.013,0 z"
   id="path4"
   inkscape:connector-curvature="0"
   style="stroke-width:0.06141322" />
	</g>
	<g
   id="Capa_1_115_"
   style="stroke-width:0.06141322">
	</g>
</g>
<g
   id="g10"
   transform="translate(0,677.328)">
</g>
<g
   id="g12"
   transform="translate(0,677.328)">
</g>
<g
   id="g14"
   transform="translate(0,677.328)">
</g>
<g
   id="g16"
   transform="translate(0,677.328)">
</g>
<g
   id="g18"
   transform="translate(0,677.328)">
</g>
<g
   id="g20"
   transform="translate(0,677.328)">
</g>
<g
   id="g22"
   transform="translate(0,677.328)">
</g>
<g
   id="g24"
   transform="translate(0,677.328)">
</g>
<g
   id="g26"
   transform="translate(0,677.328)">
</g>
<g
   id="g28"
   transform="translate(0,677.328)">
</g>
<g
   id="g30"
   transform="translate(0,677.328)">
</g>
<g
   id="g32"
   transform="translate(0,677.328)">
</g>
<g
   id="g34"
   transform="translate(0,677.328)">
</g>
<g
   id="g36"
   transform="translate(0,677.328)">
</g>
<g
   id="g38"
   transform="translate(0,677.328)">
</g>
</svg>